<svg xmlns="http://www.w3.org/2000/svg" width="29.788" height="27" viewBox="0 0 29.788 27">
  <path id="Caminho_220" data-name="Caminho 220" d="M30.07,7.008a14.138,14.138,0,0,0-1.99-.845V22.82a13.655,13.655,0,0,0-4.739-.858,14.114,14.114,0,0,0-7.447,2.188V7.4A14.51,14.51,0,0,0,1.718,7.008,1.351,1.351,0,0,0,1,8.226V24.952a1.352,1.352,0,0,0,1.354,1.371A1.417,1.417,0,0,0,3,26.157a11.567,11.567,0,0,1,5.443-1.426A12.083,12.083,0,0,1,15.894,27.5a12.083,12.083,0,0,1,7.447-2.769,11.419,11.419,0,0,1,5.443,1.44,1.417,1.417,0,0,0,.65.166,1.361,1.361,0,0,0,1.354-1.371V8.226A1.351,1.351,0,0,0,30.07,7.008ZM13.186,22.82a13.51,13.51,0,0,0-9.478,0V9.1a11.837,11.837,0,0,1,9.478.014ZM25.372.5,18.6,7.423V20.577l6.77-6.231Z" transform="translate(-1 -0.5)" fill="#0eafac"/>
</svg>
