<svg xmlns="http://www.w3.org/2000/svg" width="27" height="27" viewBox="0 0 27 27">
  <g id="Grupo_472" data-name="Grupo 472" transform="translate(-6677 -1605)">
    <path id="Caminho_210" data-name="Caminho 210" d="M27.876,2H25.581a17.862,17.862,0,0,0-14.1,6.868A1.125,1.125,0,0,0,11,8.75H9.989a8.156,8.156,0,0,0-7.965,6.528A1.121,1.121,0,0,0,2.9,16.6l5.285,1.06,5.152,5.152L14.4,28.106A1.125,1.125,0,0,0,15.5,29a1.215,1.215,0,0,0,.222-.022,8.156,8.156,0,0,0,6.528-7.965V20a1.125,1.125,0,0,0-.118-.484,18.045,18.045,0,0,0,5.515-7.259A17.876,17.876,0,0,0,29,5.42V3.125A1.125,1.125,0,0,0,27.876,2ZM9.989,11h.056a17.341,17.341,0,0,0-1.066,2.118L8.062,15.34l-3.5-.7A5.889,5.889,0,0,1,9.989,11ZM20,21.012a5.889,5.889,0,0,1-3.639,5.431l-.7-3.5,2.222-.917A17.342,17.342,0,0,0,20,20.956ZM26.751,5.42A15.624,15.624,0,0,1,25.567,11.4a15.792,15.792,0,0,1-8.541,8.542l-2.385.984-4.565-4.565.984-2.385A15.792,15.792,0,0,1,19.6,5.434,15.623,15.623,0,0,1,25.581,4.25h1.17Z" transform="translate(6674.999 1603)" fill="#0eafac"/>
    <path id="Caminho_211" data-name="Caminho 211" d="M53.411,26a3.411,3.411,0,1,0,3.411,3.411A3.411,3.411,0,0,0,53.411,26Zm0,4.548a1.137,1.137,0,1,1,1.137-1.137A1.137,1.137,0,0,1,53.411,30.548Z" transform="translate(6640.452 1585.726)" fill="#0eafac"/>
    <circle id="Elipse_136" data-name="Elipse 136" cx="1.157" cy="1.157" r="1.157" transform="translate(6687.958 1618.727)" fill="#0eafac"/>
    <path id="Caminho_212" data-name="Caminho 212" d="M3.137,72.2H6.363a6.114,6.114,0,0,0,5.81-4.187,1.137,1.137,0,0,0-2.155-.722,3.849,3.849,0,0,1-3.655,2.635H4.274V67.835A3.849,3.849,0,0,1,6.909,64.18a1.137,1.137,0,1,0-.722-2.155A6.114,6.114,0,0,0,2,67.835v3.226A1.137,1.137,0,0,0,3.137,72.2Z" transform="translate(6675 1559.802)" fill="#0eafac"/>
  </g>
</svg>
