<svg xmlns="http://www.w3.org/2000/svg" width="35.719" height="20.092" viewBox="0 0 35.719 20.092">
  <g id="Grupo_467" data-name="Grupo 467" transform="translate(0 -12.908)">
    <path id="Caminho_213" data-name="Caminho 213" d="M5.953,17.72A3.188,3.188,0,0,0,8.93,14.372a3.188,3.188,0,0,0-2.977-3.349,3.188,3.188,0,0,0-2.977,3.349A3.188,3.188,0,0,0,5.953,17.72Zm1.682,1.842a9.27,9.27,0,0,0-1.682-.167,9.373,9.373,0,0,0-4.137.971A3.4,3.4,0,0,0,0,23.463v2.629H6.7V23.4A8.258,8.258,0,0,1,7.635,19.562ZM29.766,17.72a3.188,3.188,0,0,0,2.977-3.349,3.188,3.188,0,0,0-2.977-3.349,3.188,3.188,0,0,0-2.977,3.349A3.188,3.188,0,0,0,29.766,17.72Zm5.953,5.743a3.4,3.4,0,0,0-1.816-3.1,9.373,9.373,0,0,0-4.137-.971,9.27,9.27,0,0,0-1.682.167,8.258,8.258,0,0,1,.938,3.834v2.7h6.7ZM24.17,18.809a14.1,14.1,0,0,0-6.31-1.507,14.323,14.323,0,0,0-6.31,1.507A5.072,5.072,0,0,0,8.93,23.4v2.7H26.789V23.4A5.072,5.072,0,0,0,24.17,18.809ZM12.01,22.743c.134-.385.193-.653,1.354-1.155a11.242,11.242,0,0,1,8.989,0c1.146.5,1.206.77,1.354,1.155ZM17.859,9.349a1.594,1.594,0,0,1,1.488,1.674A1.594,1.594,0,0,1,17.859,12.7a1.594,1.594,0,0,1-1.488-1.674,1.594,1.594,0,0,1,1.488-1.674m0-3.349a4.762,4.762,0,0,0-4.465,5.023,4.762,4.762,0,0,0,4.465,5.023,4.762,4.762,0,0,0,4.465-5.023A4.762,4.762,0,0,0,17.859,6Z" transform="translate(0 6.908)" fill="#0eafac"/>
  </g>
</svg>
