<svg id="Logo_Rocket_Talents" data-name="Logo Rocket Talents" xmlns="http://www.w3.org/2000/svg" width="332" height="75.934" viewBox="0 0 332 75.934">
  <path id="Caminho_1" data-name="Caminho 1" d="M291.766,564.3v11.248h-1.894v-24.08h8.634c4.747,0,7.258,2.543,7.258,6.331a5.451,5.451,0,0,1-4.507,5.641c2.477.585,4.128,2.2,4.128,6.295v.929c0,1.685-.138,3.956.31,4.885H303.8c-.447-1.033-.344-2.959-.344-5.023v-.618c0-3.956-1.169-5.607-5.779-5.607Zm0-1.72h5.813c4.231,0,6.192-1.583,6.192-4.747,0-2.958-1.926-4.644-5.676-4.644h-6.331Z" transform="translate(-211.406 -551.129)" fill="#ececec"/>
  <path id="Caminho_2" data-name="Caminho 2" d="M361.511,563.05c0,6.57-3.509,12.554-10.939,12.554-6.777,0-10.732-5.469-10.732-12.383,0-6.81,3.818-12.384,10.973-12.384C357.418,550.838,361.511,556.032,361.511,563.05Zm-19.677.069c0,5.539,3.062,10.769,8.841,10.769,6.223,0,8.841-5.092,8.841-10.8,0-5.607-2.958-10.526-8.772-10.526C344.552,552.558,341.835,557.684,341.835,563.119Z" transform="translate(-234.366 -550.837)" fill="#ececec"/>
  <path id="Caminho_3" data-name="Caminho 3" d="M419.329,568.831a8.794,8.794,0,0,1-9.047,6.71c-6.914,0-10.56-5.5-10.56-12.28,0-6.5,3.577-12.418,10.595-12.418,5.195,0,8.256,2.89,9.047,6.914H417.5c-1.1-3.13-3.13-5.195-7.292-5.195-5.986,0-8.5,5.469-8.5,10.663,0,5.16,2.477,10.595,8.634,10.595,3.921,0,5.917-2.029,7.121-4.988Z" transform="translate(-261.877 -550.84)" fill="#ececec"/>
  <path id="Caminho_4" data-name="Caminho 4" d="M458.266,551.475h1.858V564c1.926-1.857,8.806-8.324,13.106-12.521h2.477l-10.8,10.251,11.421,13.829h-2.305L463.564,562.93l-3.44,3.026v9.6h-1.858Z" transform="translate(-288.775 -551.13)" fill="#ececec"/>
  <path id="Caminho_5" data-name="Caminho 5" d="M524.848,563.715h-12.28v10.113h13.451l-.275,1.72H510.711v-24.08h14.756v1.72h-12.9v8.806h12.28Z" transform="translate(-312.869 -551.127)" fill="#ececec"/>
  <path id="Caminho_6" data-name="Caminho 6" d="M564.816,553.195h-8.084v-1.72h18.094v1.72h-8.117v22.36h-1.894Z" transform="translate(-334.015 -551.13)" fill="#ececec"/>
  <circle id="Elipse_1" data-name="Elipse 1" cx="4.6" cy="4.6" r="4.6" transform="translate(322.801 39.557)" fill="#0faba8"/>
  <path id="Caminho_9" data-name="Caminho 9" d="M180.145,625.681v1.134A5.187,5.187,0,0,1,174.957,632H165.59v27.477a1.634,1.634,0,0,1-1.634,1.634H160.9a1.634,1.634,0,0,1-1.634-1.634V632H149.9a5.187,5.187,0,0,1-5.187-5.187v-1.134Z" transform="translate(-144.714 -585.181)" fill="#ececec"/>
  <path id="Caminho_10" data-name="Caminho 10" d="M252.145,664.046h-2.786a7.043,7.043,0,0,1-6.27-3.835l-1.28-2.5-6.494-12.754a1.385,1.385,0,0,0-2.468,0l-6.494,12.754-1.407,2.756a6.577,6.577,0,0,1-5.855,3.581H216.02l3.221-6.337,12.247-24.026a2.911,2.911,0,0,1,5.188,0l12.248,24.026Z" transform="translate(-177.434 -588.123)" fill="#ececec"/>
  <path id="Caminho_11" data-name="Caminho 11" d="M333.978,660.557v.5H316.021a11.208,11.208,0,0,1-4.969-1.157,11.412,11.412,0,0,1-6.316-10.126V625.628h1.894a4.42,4.42,0,0,1,4.421,4.421v20.357a5.048,5.048,0,0,0,4.337,4.337h12.774a5.815,5.815,0,0,1,5.815,5.815Z" transform="translate(-218.24 -585.156)" fill="#ececec"/>
  <path id="Caminho_12" data-name="Caminho 12" d="M393.123,635.195v3.287a.009.009,0,0,0,.009.009h22.782a.009.009,0,0,1,.009.009v.237a6.069,6.069,0,0,1-6.067,6.069H393.135a.01.01,0,0,0-.009.009v6.677a3.283,3.283,0,0,0,3.272,3.272h19.589a6.253,6.253,0,0,1,6.253,6.253v.054a.008.008,0,0,1,0,.006.009.009,0,0,1-.006,0H396.374a9.566,9.566,0,0,1-9.566-9.566v-16.3a9.587,9.587,0,0,1,9.588-9.588h25.833a.009.009,0,0,1,.006,0,.009.009,0,0,1,0,.006h0a6.307,6.307,0,0,1-6.307,6.307H396.374A3.251,3.251,0,0,0,393.123,635.195Z" transform="translate(-255.952 -585.156)" fill="#ececec"/>
  <path id="Caminho_13" data-name="Caminho 13" d="M515.84,625.627v35.451l-6.337-4.884-22.776-17.556v16.9a5.546,5.546,0,0,1-5.546,5.545h-.791V625.754l6.337,4.884L509.5,648.195V630.807a5.181,5.181,0,0,1,5.181-5.181Z" transform="translate(-298.951 -585.155)" fill="#ececec"/>
  <path id="Caminho_14" data-name="Caminho 14" d="M609.4,625.682v.762a5.56,5.56,0,0,1-5.56,5.56h-8.995v27.508a1.6,1.6,0,0,1-1.6,1.6h-3.118a1.6,1.6,0,0,1-1.6-1.6V632h-9a5.559,5.559,0,0,1-5.56-5.56v-.762Z" transform="translate(-341.95 -585.181)" fill="#ececec"/>
  <path id="Caminho_15" data-name="Caminho 15" d="M698.117,642.3a11.123,11.123,0,0,0-8.273-3.662H677.107a3.242,3.242,0,0,1-3.242-3.242v-.19a3.242,3.242,0,0,1,3.242-3.242h14.4a3.242,3.242,0,0,1,2.857,1.708A3.8,3.8,0,0,0,697.4,635.4h3.474a.191.191,0,0,0,.19-.19,9.578,9.578,0,0,0-9.578-9.578H677.128a9.578,9.578,0,0,0-9.578,9.578v.19a9.453,9.453,0,0,0,1.7,5.431A8.375,8.375,0,0,0,670.5,642.3a9.39,9.39,0,0,0,6.61,2.674h12.734a4.9,4.9,0,0,1,4.852,5.616,5,5,0,0,1-4.995,4.152H678.749a4.888,4.888,0,0,1-4.437-2.839,3.54,3.54,0,0,0-3.216-2.045h-3.548a11.194,11.194,0,0,0,11.2,11.2h10.877a11.355,11.355,0,0,0,11.349-9.766,11.173,11.173,0,0,0-2.435-8.506A3.014,3.014,0,0,0,698.117,642.3Z" transform="translate(-384.963 -585.157)" fill="#ececec"/>
  <circle id="Elipse_2" data-name="Elipse 2" cx="2.976" cy="2.976" r="2.976" transform="translate(53.876 68.778)" fill="#0faba8"/>
</svg>
