<svg id="Logo_Rocket" data-name="Logo Rocket" xmlns="http://www.w3.org/2000/svg" width="138.496" height="157.402" viewBox="0 0 138.496 157.402">
  <path id="Caminho_7" data-name="Caminho 7" d="M455.887,330.517,382.07,284.18c-21.54-13.522-49.47,2.047-49.47,27.571v67.188c9.876,3.2,22.247,3.226,33.208-8.594a4.1,4.1,0,0,1,5.922-.128l5.78,5.81a3.782,3.782,0,0,1-.563,5.8c-8.079,5.444-25.282,19.927-17.608,47.6q.08.289.136.579a7.894,7.894,0,0,0,8.258,6.56,32.057,32.057,0,0,0,14.254-4.815L455.8,385.713A32.6,32.6,0,0,0,455.887,330.517ZM368.65,361.159l-4.578-.712a3.11,3.11,0,0,1-2.1-4.783l5.766-8.766a4.457,4.457,0,0,1,3.4-2.01l5-.389A41.314,41.314,0,0,0,368.65,361.159Zm16.634,15.259a2.954,2.954,0,0,1-2.09-.874L372.7,364.99a2.975,2.975,0,0,1-.831-2.58,33.444,33.444,0,0,1,1.946-6.9l18.815,18.912a33.03,33.03,0,0,1-6.865,1.957,2.893,2.893,0,0,1-.477.042Zm17.91.694a4.489,4.489,0,0,1-2,3.417l-8.721,5.8a3.088,3.088,0,0,1-4.758-2.116l-.708-4.6a40.883,40.883,0,0,0,16.574-7.521Zm11.368-22.559a46.051,46.051,0,0,1-18.67,18.364,1.744,1.744,0,0,0-.136-.157l-20.288-20.394a1.631,1.631,0,0,0-.157-.136,46.035,46.035,0,0,1,18.269-18.767,44.475,44.475,0,0,1,20.19-4.626c.96,0,1.811.029,2.53.068a2.972,2.972,0,0,1,2.795,2.814c.241,4.434.068,13.89-4.534,22.837Z" transform="translate(-332.6 -279.193)" fill="#10dfc2"/>
  <path id="Caminho_8" data-name="Caminho 8" d="M423.351,368.725a8.4,8.4,0,1,0,5.977-2.5A8.454,8.454,0,0,0,423.351,368.725Zm9.564,9.563A5.072,5.072,0,1,1,434.4,374.7,5.072,5.072,0,0,1,432.915,378.288Z" transform="translate(-360.943 -306.793)" fill="#10dfc2"/>
</svg>
